<svg width="64" height="64" viewBox="0 0 64 64" fill="none" xmlns="http://www.w3.org/2000/svg">
<path d="M53.5709 43.7694C47.812 53.3856 36.2084 57.804 25.5064 54.4558L25.2196 54.3642C25.0204 54.2965 24.8212 54.2328 24.6299 54.1612L24.1717 53.99L23.7056 53.8148C23.3908 53.6874 23.0801 53.556 22.7693 53.4166L7 57L7.06774 56.9761H7L11.3826 42.8616C11.1276 42.3958 10.8965 41.918 10.6734 41.4442V41.4243C5.5356 30.3339 9.46301 17.1559 19.8354 10.6818C30.2079 4.20776 43.7808 6.46284 51.4991 15.9426L51.7103 16.2054C51.8019 16.3248 51.8975 16.4363 51.9892 16.5557L51.9692 16.5358L52.1884 16.8225L52.3876 17.1012C52.5151 17.2724 52.6346 17.4436 52.7541 17.6188L53.025 18.017C53.1127 18.1484 53.1964 18.2797 53.28 18.4151C53.3637 18.5505 53.4832 18.7376 53.5828 18.9009C53.6386 18.9924 53.6904 19.092 53.7462 19.1875C54.3093 20.1623 54.8045 21.1746 55.2283 22.2175C55.2342 22.2324 55.2408 22.247 55.2482 22.2613V22.2851C55.3518 22.5479 55.4554 22.8107 55.551 23.0815C55.564 23.1111 55.5747 23.1417 55.5829 23.173C55.6785 23.4438 55.7741 23.7145 55.8578 23.9693V24.0091C57.9643 30.619 57.1316 37.8145 53.5709 43.7694Z" stroke="#BE59CF" stroke-width="3" stroke-linecap="round" stroke-linejoin="round"/>
</svg>
