<svg width="64" height="64" viewBox="0 0 64 64" fill="none" xmlns="http://www.w3.org/2000/svg">
<path d="M55.1017 27.7752H34.7133L47.1369 7.4578C47.5712 6.74602 47.3619 5.8646 46.6394 5.36274C45.9168 4.86089 44.8873 4.88187 44.1923 5.41262L7.64361 33.2914C7.05091 33.7507 6.84363 34.482 7.1224 35.1301C7.40117 35.7782 8.10826 36.2089 8.90034 36.2131H29.2887L16.8652 56.5422C16.4308 57.254 16.6401 58.1354 17.3627 58.6373C18.0852 59.1391 19.1148 59.1181 19.8098 58.5874L56.3618 30.6969C56.9512 30.2359 57.1558 29.5056 56.8768 28.8587C56.5978 28.2118 55.8926 27.7814 55.1017 27.7752Z" stroke="#BE59CF" stroke-width="3" stroke-linecap="round" stroke-linejoin="round"/>
</svg>
