<?xml version="1.0" encoding="UTF-8" standalone="no"?>
<!DOCTYPE svg PUBLIC "-//W3C//DTD SVG 1.1//EN" "http://www.w3.org/Graphics/SVG/1.1/DTD/svg11.dtd">
<!-- Created with Vectornator (http://vectornator.io/) -->
<svg height="100%" stroke-miterlimit="10" style="fill-rule:nonzero;clip-rule:evenodd;stroke-linecap:round;stroke-linejoin:round;" version="1.1" viewBox="0 0 256 256" width="100%" xml:space="preserve" xmlns="http://www.w3.org/2000/svg" xmlns:vectornator="http://vectornator.io" xmlns:xlink="http://www.w3.org/1999/xlink">
<defs/>
<g id="Untitled" vectornator:layerName="Untitled">
<g opacity="1">
<path d="M128 10.3664C149.804 10.3664 167.542 28.1039 167.542 49.9081L167.542 67.1022C167.542 88.9064 149.804 106.644 128 106.644C106.196 106.644 88.4583 88.9064 88.4583 67.1022L88.4583 49.9081C88.4583 28.1039 106.196 10.3664 128 10.3664M128 1.96399L128 1.96399C101.63 1.96399 80.0559 23.5386 80.0559 49.9081L80.0559 67.1022C80.0559 93.4717 101.63 115.046 128 115.046L128 115.046C154.37 115.046 175.944 93.4717 175.944 67.1022L175.944 49.9081C175.944 23.5386 154.37 1.96399 128 1.96399L128 1.96399Z" fill="#be59cf" fill-rule="evenodd" opacity="1" stroke="none"/>
<path d="M156.271 130.369C187.576 136.285 210.878 164.139 210.878 196.191L210.878 245.634L45.1215 245.634L45.1215 196.191C45.1215 164.139 68.4242 136.285 99.7287 130.369C108.666 134.54 118.164 136.654 128 136.654C137.836 136.654 147.334 134.54 156.271 130.369M154.997 121.634C146.886 125.835 137.719 128.252 128 128.252C118.281 128.252 109.114 125.835 101.003 121.634C64.7551 127.042 36.7191 158.498 36.7191 196.188L36.7191 245.782C36.7191 250.322 40.433 254.033 44.9703 254.033L211.03 254.033C215.57 254.033 219.281 250.319 219.281 245.782L219.281 196.191C219.281 158.498 191.245 127.045 154.997 121.634L154.997 121.634Z" fill="#be59cf" fill-rule="evenodd" opacity="1" stroke="none"/>
</g>
</g>
</svg>
