<svg xmlns="http://www.w3.org/2000/svg" width="64" height="64" viewBox="0 0 64 64"><path d="M46.57,26a15,15,0,0,1,0,17.34l3.78,2.88a19.74,19.74,0,0,0-.29-23.46l-2.16,2Z" fill="#02e2ac" fill-rule="evenodd"/><path d="M53.71,48.75,41,39.09a7.33,7.33,0,0,0,.37-8.4l6.08-5.49,6.37-6a1,1,0,0,0,0-1.48L53,16.88A25.07,25.07,0,0,0,35.91,9.42l0-3.5a2.05,2.05,0,0,0,0-.7,1.7,1.7,0,0,0-.34-.62A1.44,1.44,0,0,0,35,4.18a1.57,1.57,0,0,0-1.34,0,1.69,1.69,0,0,0-.57.42,1.42,1.42,0,0,0-.34.59,1.3,1.3,0,0,0,0,.7l0,3.6a25.18,25.18,0,0,0-4.53.88l0-4.48a2.09,2.09,0,0,0-.05-.7,1.79,1.79,0,0,0-.34-.62,1.42,1.42,0,0,0-.57-.41,1.48,1.48,0,0,0-1.34,0,1.66,1.66,0,0,0-.57.41,1.45,1.45,0,0,0-.34.6,1.28,1.28,0,0,0-.05.7l-.08,5.72a25.27,25.27,0,0,0,9.79,48.33l18.5.08a1,1,0,0,0,1-1V49.61A1.1,1.1,0,0,0,53.71,48.75ZM35,55.41A20.75,20.75,0,0,1,24.72,16.67l0,6.82a2.09,2.09,0,0,0,.05.7,1.79,1.79,0,0,0,.34.62,1.8,1.8,0,0,0,1.24.57,1.44,1.44,0,0,0,.67-.16,1.66,1.66,0,0,0,.57-.41,1.45,1.45,0,0,0,.34-.6,1.28,1.28,0,0,0,.05-.7l0-8.37a20.68,20.68,0,0,1,7.11-1.21A20.41,20.41,0,0,1,47.47,18.1a.53.53,0,0,1,.06.8l-9.68,8.89a7.45,7.45,0,0,0-2.8-.57,7.56,7.56,0,0,0-3.1.65,7.32,7.32,0,0,0-2.54,1.89,7.62,7.62,0,0,0-1.53,2.77,7.2,7.2,0,0,0-.23,3.16,7.5,7.5,0,0,0,1.09,3A7.31,7.31,0,0,0,33.94,42a7.17,7.17,0,0,0,3.16-.23l12.37,9.41a.51.51,0,0,1,.2.41l0,3.32a.52.52,0,0,1-.52.52Zm3-20.73a3.09,3.09,0,0,1-.5,1.63,2.87,2.87,0,0,1-1.32,1.09,2.64,2.64,0,0,1-1.68.16,3.18,3.18,0,0,1-1.5-.8,2.89,2.89,0,0,1-.8-1.51,2.84,2.84,0,0,1,.18-1.68,2.87,2.87,0,0,1,1.09-1.32,3.09,3.09,0,0,1,1.63-.5A2.94,2.94,0,0,1,38,34.68Z" fill="#fff" fill-rule="evenodd"/></svg>